<?xml version="1.0" encoding="utf-8"?>
<!-- Generator: Adobe Illustrator 17.0.0, SVG Export Plug-In . SVG Version: 6.00 Build 0)  -->
<!DOCTYPE svg PUBLIC "-//W3C//DTD SVG 1.1//EN" "http://www.w3.org/Graphics/SVG/1.1/DTD/svg11.dtd">
<svg version="1.1"
	 id="svg2" xmlns:dc="http://purl.org/dc/elements/1.1/" xmlns:cc="http://creativecommons.org/ns#" xmlns:svg="http://www.w3.org/2000/svg" xmlns:inkscape="http://www.inkscape.org/namespaces/inkscape" xmlns:sodipodi="http://sodipodi.sourceforge.net/DTD/sodipodi-0.dtd" xmlns:rdf="http://www.w3.org/1999/02/22-rdf-syntax-ns#"
	 xmlns="http://www.w3.org/2000/svg" xmlns:xlink="http://www.w3.org/1999/xlink" x="0px" y="0px" width="512px" height="512px"
	 viewBox="0 0 512 512" enable-background="new 0 0 512 512" xml:space="preserve">
<g id="layer1" transform="translate(0,-540.3622)">
	<g id="layer1-5" transform="translate(-573.14286,170.28574)">
	</g>
	<path id="path3833" fill="#DDDDDD" d="M275.753,553.753c-0.744,0.021-1.485,0.094-2.219,0.219H132.003
		c-8.836,0.001-15.999,7.164-16,16v109h-25c-7.232-0.087-13.947,3.737-17.563,10H51.002c-8.161-0.109-15.569,4.752-18.719,12.281
		L3.846,748.659c-2.673,4.447-3.513,9.758-2.344,14.813l60,260c2.097,9.077,10.183,15.505,19.5,15.5h399.969
		c0.052,0,0.104,0,0.156,0c0.396-0.009,0.792-0.03,1.188-0.062c0.313-0.013,0.626-0.034,0.938-0.062
		c0.556-0.071,1.108-0.164,1.656-0.281c0.021,0,0.042,0,0.063,0c0.632-0.126,1.258-0.282,1.875-0.469
		c0.021-0.01,0.042-0.021,0.063-0.031c0.01,0,0.021,0,0.031,0c0.625-0.199,1.241-0.428,1.844-0.688
		c0.284-0.119,0.565-0.244,0.844-0.375c0.042-0.021,0.083-0.041,0.125-0.062c0.274-0.119,0.544-0.244,0.813-0.375
		c0.01-0.01,0.021-0.021,0.031-0.031c0.158-0.092,0.314-0.185,0.469-0.281c0.052-0.031,0.104-0.062,0.156-0.094
		c0.525-0.31,1.036-0.644,1.531-1c0.042-0.031,0.083-0.063,0.125-0.094c0.031-0.021,0.063-0.041,0.094-0.062
		c0.169-0.143,0.336-0.289,0.5-0.438c0.353-0.27,0.697-0.551,1.031-0.844c0.042-0.042,0.084-0.083,0.125-0.125
		c0.234-0.213,0.464-0.432,0.688-0.656c0.138-0.144,0.273-0.29,0.406-0.438c0.314-0.344,0.617-0.698,0.906-1.063
		c0.042-0.052,0.084-0.104,0.125-0.156c0.238-0.306,0.467-0.618,0.688-0.938c0.184-0.266,0.361-0.537,0.531-0.813
		c0.053-0.073,0.105-0.146,0.156-0.219c0.085-0.155,0.169-0.311,0.25-0.469c0.151-0.247,0.297-0.497,0.438-0.75
		c0.01-0.01,0.021-0.021,0.031-0.031c0.075-0.166,0.148-0.332,0.219-0.5c0.253-0.531,0.482-1.073,0.688-1.625
		c0.032-0.073,0.063-0.146,0.094-0.219c0.032-0.114,0.063-0.229,0.094-0.344c0.065-0.176,0.128-0.353,0.188-0.531
		c0.054-0.156,0.106-0.312,0.156-0.469c0-0.01,0-0.021,0-0.031c0.044-0.187,0.086-0.374,0.125-0.563
		c0.12-0.455,0.225-0.913,0.313-1.375c0.011-0.094,0.021-0.187,0.031-0.281c0.051-0.343,0.092-0.687,0.125-1.031
		c0.035-0.229,0.066-0.458,0.094-0.688c0.001-0.125,0.001-0.25,0-0.375c0.011-0.062,0.021-0.125,0.031-0.188
		c0.001-0.083,0.001-0.167,0-0.25l10-320c0.344-11.041-8.328-20.271-19.369-20.615c-0.21-0.007-0.42-0.01-0.631-0.01h-95v-2.406
		c0.957-5.816-1.36-11.687-6.031-15.281L288.596,559.911c-3.082-3.949-7.835-6.228-12.844-6.156L275.753,553.753z M148.003,585.971
		h112v85.438c-0.836,5.136,0.877,10.358,4.594,14c0.041,0.042,0.083,0.084,0.125,0.125c0.072,0.074,0.145,0.147,0.219,0.219
		c3.643,3.484,8.715,5.047,13.688,4.219h85.375v49H232.315l-24.156-40.281c-3.614-6.029-10.127-9.719-17.156-9.719h-43V585.971z
		 M292.003,608.596l49.375,49.375h-49.375V608.596z M396.003,718.971h74.344l-5.594,179.125l-44.625-145c0-0.01,0-0.021,0-0.031
		c-0.199-0.625-0.428-1.241-0.688-1.844c0-0.01,0-0.021,0-0.031c-0.262-0.608-0.554-1.202-0.875-1.781c0-0.01,0-0.021,0-0.031
		c-0.317-0.569-0.661-1.121-1.031-1.656c0-0.01,0-0.021,0-0.031c-0.38-0.541-0.787-1.062-1.219-1.563c0-0.01,0-0.021,0-0.031
		c-0.424-0.501-0.873-0.981-1.344-1.438c-0.01-0.01-0.021-0.021-0.031-0.031c-0.468-0.461-0.958-0.899-1.469-1.313
		c-0.01,0-0.021,0-0.031,0c-0.512-0.411-1.044-0.797-1.594-1.156c-0.01,0-0.021,0-0.031,0c-0.546-0.361-1.109-0.694-1.688-1
		c-0.01,0-0.021,0-0.031,0c-0.59-0.301-1.195-0.572-1.813-0.813c-0.614-0.239-1.24-0.448-1.875-0.625
		c-1.216-0.336-2.461-0.555-3.719-0.656c-0.073-0.011-0.146-0.021-0.219-0.031c-0.01,0-0.021,0-0.031,0
		c-0.478-0.038-0.958-0.059-1.438-0.063h-5L396.003,718.971L396.003,718.971z M62.315,728.971h53.688h63.688l24.156,40.281
		c3.614,6.029,10.127,9.719,17.156,9.719h165.219l9.781,31.781l13.375,43.531l44.531,144.688H96.94L42.315,762.315L62.315,728.971z"
		/>
	<g id="layer1-5-4" transform="matrix(0.8,0,0,0.8,-408.20814,246.38775)">
	</g>
</g>
</svg>
